<svg xmlns="http://www.w3.org/2000/svg" width="375" height="240" viewBox="0 0 375 240"><defs><style>.a{fill:#ccc;}.b{fill:#7d7d7d;}</style></defs><rect class="a" width="375" height="240"/><g transform="translate(148 92)"><path class="b" d="M75.662,41.616A35.7,35.7,0,0,0,42.34,7.517V4.687h3.984V0H33.669V4.687h3.984v2.83a35.7,35.7,0,0,0-33.322,34.1H0v5.333A9.463,9.463,0,0,0,9.452,56.4H70.54a9.463,9.463,0,0,0,9.452-9.452V41.616ZM40,12.127A31.051,31.051,0,0,1,70.971,41.616H9.021A31.051,31.051,0,0,1,40,12.127ZM75.306,46.949a4.771,4.771,0,0,1-4.765,4.765H9.452a4.771,4.771,0,0,1-4.765-4.765V46.3H75.306Zm0,0"/><path class="b" d="M85.652,173.22l4.638.676c.009-.059.932-5.976,4.723-9.308l-3.095-3.521C86.811,165.556,85.7,172.909,85.652,173.22Zm0,0" transform="translate(-72.27 -135.902)"/></g></svg>